<svg width="27" height="27" viewBox="0 0 27 27" fill="none" xmlns="http://www.w3.org/2000/svg">
<path d="M13.4997 27C10.3764 26.9999 7.34972 25.9169 4.93543 23.9354C2.52115 21.954 0.868599 19.1967 0.259353 16.1334C-0.349893 13.0701 0.121863 9.89031 1.59424 7.13585C3.06662 4.38139 5.44851 2.22267 8.33409 1.02751C11.2197 -0.167659 14.4304 -0.325312 17.4192 0.581399C20.4079 1.48811 22.9899 3.40309 24.725 6.00005C26.4602 8.59701 27.2412 11.7153 26.935 14.8235C26.6288 17.9317 25.2543 20.8377 23.0458 23.0461C21.7951 24.3037 20.3074 25.3006 18.6688 25.9793C17.0302 26.658 15.2732 27.0049 13.4997 27ZM13.4997 2.45536C11.3152 2.45536 9.17986 3.10311 7.36358 4.31671C5.54729 5.53031 4.13167 7.25526 3.29573 9.2734C2.45979 11.2915 2.24106 13.5123 2.66722 15.6547C3.09338 17.7972 4.14528 19.7651 5.6899 21.3097C7.23452 22.8544 9.2025 23.9063 11.3449 24.3324C13.4874 24.7586 15.7081 24.5399 17.7263 23.7039C19.7444 22.868 21.4693 21.4524 22.6829 19.6361C23.8965 17.8198 24.5443 15.6844 24.5443 13.5C24.5414 10.5717 23.3768 7.76415 21.3062 5.69351C19.2355 3.62287 16.428 2.4583 13.4997 2.45536Z" fill="white"/>
<path d="M13.5 20.2223C13.3389 20.2223 13.1794 20.1905 13.0305 20.1288C12.8817 20.0671 12.7465 19.9766 12.6327 19.8626C12.5189 19.7486 12.4286 19.6132 12.3672 19.4643C12.3057 19.3154 12.2743 19.1558 12.2745 18.9946V12.1925C12.2675 12.027 12.294 11.8618 12.3525 11.7069C12.4109 11.5519 12.5002 11.4104 12.6148 11.2908C12.7293 11.1713 12.8669 11.0761 13.0193 11.0111C13.1716 10.9461 13.3355 10.9126 13.5011 10.9126C13.6667 10.9126 13.8306 10.9461 13.983 11.0111C14.1353 11.0761 14.2729 11.1713 14.3875 11.2908C14.5021 11.4104 14.5913 11.5519 14.6497 11.7069C14.7082 11.8618 14.7347 12.027 14.7277 12.1925V18.9946C14.728 19.156 14.6964 19.3157 14.6348 19.4648C14.5732 19.6139 14.4828 19.7493 14.3688 19.8634C14.2547 19.9775 14.1192 20.0679 13.9702 20.1295C13.8211 20.1911 13.6613 20.2226 13.5 20.2223Z" fill="white"/>
<path d="M13.5033 8.81815C13.2604 8.81858 13.0228 8.74695 12.8207 8.61232C12.6185 8.47769 12.4608 8.28612 12.3675 8.06183C12.2743 7.83754 12.2496 7.59061 12.2968 7.35232C12.3439 7.11403 12.4606 6.89507 12.6322 6.72316C12.8038 6.55124 13.0226 6.4341 13.2608 6.38655C13.499 6.339 13.746 6.36318 13.9704 6.45603C14.1949 6.54889 14.3867 6.70624 14.5217 6.90818C14.6567 7.11012 14.7288 7.34757 14.7288 7.59048C14.7288 7.91569 14.5998 8.22761 14.37 8.45778C14.1402 8.68795 13.8286 8.81756 13.5033 8.81815Z" fill="white"/>

</svg>
