<svg width="189" height="44" viewBox="0 0 189 44" fill="none" xmlns="http://www.w3.org/2000/svg">
<path d="M82.1569 0.32275V13.7077C81.1422 10.8291 79.4449 8.22765 77.2047 6.11724C75.1745 4.2264 72.7693 2.76496 70.1385 1.82372C67.3866 0.819583 64.3532 0.310376 61.1216 0.310376H42.4265V13.5783C40.5281 8.92491 37.0353 5.06496 32.5486 2.66182C28.0618 0.258676 22.8611 -0.537575 17.8404 0.409904C12.8197 1.35738 8.29241 3.98942 5.03666 7.85368C1.78091 11.7179 0 16.5731 0 21.5847C0 26.5964 1.78091 31.4515 5.03666 35.3158C8.29241 39.1801 12.8197 41.8121 17.8404 42.7596C22.8611 43.7071 28.0618 42.9108 32.5486 40.5077C37.0353 38.1045 40.5281 34.2446 42.4265 29.5912V42.8306H61.1216C64.3532 42.8306 67.3866 42.3214 70.1385 41.3163C72.7693 40.375 75.1745 38.9136 77.2047 37.0228C79.4451 34.9125 81.1424 32.311 82.1569 29.4322V42.8525H102.709V0.32275H82.1569Z" fill="white"/>
<path d="M150.066 21.8269C149.884 21.8875 149.699 21.9362 149.51 21.9726C149.31 22.0104 149.099 22.0428 148.882 22.0671C148.666 22.0914 148.438 22.1238 148.216 22.1616C148.006 22.1973 147.8 22.2479 147.599 22.3128C147.411 22.3681 147.234 22.4539 147.076 22.5666C146.924 22.6742 146.799 22.8146 146.712 22.9769C146.616 23.1711 146.569 23.3851 146.576 23.6006C146.57 23.8108 146.617 24.0192 146.712 24.208C146.801 24.3657 146.929 24.4993 147.085 24.5968C147.257 24.6935 147.445 24.7611 147.64 24.7966C147.852 24.8326 148.067 24.8507 148.282 24.8505C148.723 24.8743 149.162 24.781 149.552 24.5806C149.825 24.4293 150.053 24.2116 150.213 23.9488C150.35 23.7162 150.439 23.4607 150.477 23.1956C150.505 22.9969 150.522 22.7968 150.527 22.5963V21.5893C150.399 21.6969 150.248 21.777 150.086 21.8242L150.066 21.8269ZM144.598 18.0311C144.876 17.6182 145.25 17.2743 145.69 17.0268C146.153 16.7671 146.657 16.5846 147.182 16.4868C147.731 16.3821 148.289 16.3297 148.849 16.3302C149.365 16.3305 149.88 16.3639 150.391 16.4301C150.884 16.4955 151.364 16.6339 151.814 16.8405C152.229 17.034 152.59 17.3232 152.864 17.6828C153.158 18.1037 153.302 18.606 153.276 19.1136V24.208C153.275 24.632 153.3 25.0557 153.351 25.4769C153.377 25.7956 153.472 26.1054 153.628 26.3867H150.822C150.768 26.2338 150.725 26.0778 150.691 25.9196C150.66 25.7609 150.639 25.6004 150.627 25.4391C150.197 25.8715 149.661 26.1902 149.069 26.3651C148.474 26.5419 147.856 26.6328 147.235 26.6351C146.779 26.6387 146.326 26.5815 145.887 26.465C145.489 26.359 145.117 26.1753 144.795 25.925C144.482 25.682 144.232 25.3702 144.067 25.0152C143.881 24.6049 143.79 24.1595 143.803 23.7113C143.784 23.2343 143.887 22.7603 144.103 22.3317C144.289 21.9901 144.557 21.6967 144.884 21.4759C145.215 21.2541 145.584 21.0897 145.973 20.9899C146.381 20.8816 146.794 20.7969 147.212 20.7362C147.629 20.6714 148.046 20.6201 148.441 20.5823C148.802 20.5526 149.161 20.4957 149.513 20.4122C149.783 20.3557 150.036 20.2424 150.255 20.0801C150.347 20.0027 150.418 19.9048 150.463 19.7948C150.507 19.6848 150.524 19.5659 150.511 19.4484C150.523 19.2084 150.471 18.9695 150.361 18.7546C150.269 18.591 150.135 18.4534 149.972 18.355C149.8 18.2598 149.611 18.1958 149.416 18.166C149.187 18.1326 148.956 18.1163 148.724 18.1175C148.268 18.0929 147.817 18.2132 147.437 18.4603C147.267 18.6008 147.129 18.7751 147.033 18.9716C146.937 19.1681 146.885 19.3822 146.882 19.5996H144.103C144.118 19.0419 144.287 18.4983 144.592 18.0257L144.598 18.0311ZM142.703 16.5867V18.3847H140.674V23.2442C140.674 23.7005 140.752 23.9974 140.907 24.1513C141.063 24.3052 141.374 24.3808 141.844 24.3808C142.002 24.3808 142.147 24.3808 142.291 24.3619C142.436 24.343 142.569 24.3268 142.703 24.3025V26.3894C142.444 26.4267 142.183 26.451 141.922 26.4623C141.644 26.4785 141.366 26.4812 141.088 26.4812C140.681 26.4845 140.274 26.4565 139.871 26.3975C139.514 26.3498 139.17 26.2371 138.857 26.0654C138.563 25.8994 138.323 25.6561 138.165 25.3635C137.979 24.9935 137.891 24.5843 137.909 24.1729V18.3901H136.242V16.5921H137.909V13.6548H140.688V16.5921L142.703 16.5867ZM132.007 21.8215C131.825 21.8815 131.64 21.9302 131.451 21.9672C131.249 22.005 131.037 22.0374 130.815 22.0617C130.593 22.086 130.373 22.1184 130.154 22.1562C129.945 22.1922 129.739 22.2428 129.537 22.3074C129.348 22.3639 129.17 22.4496 129.009 22.5612C128.86 22.6705 128.737 22.8107 128.65 22.9715C128.553 23.1652 128.506 23.3795 128.514 23.5952C128.507 23.8055 128.554 24.0142 128.65 24.2026C128.738 24.3612 128.866 24.4951 129.023 24.5914C129.194 24.6894 129.383 24.757 129.579 24.7911C129.791 24.8271 130.007 24.8452 130.223 24.8451C130.663 24.8697 131.101 24.7763 131.49 24.5752C131.764 24.4232 131.992 24.2057 132.154 23.9434C132.29 23.7107 132.379 23.4551 132.416 23.1902C132.444 22.9916 132.46 22.7914 132.463 22.5909V21.5893C132.336 21.6963 132.187 21.7763 132.027 21.8242L132.007 21.8215ZM126.555 18.0284C126.834 17.6148 127.209 17.2708 127.65 17.0241C128.113 16.764 128.617 16.5815 129.142 16.4841C129.692 16.3793 130.25 16.3269 130.81 16.3275C131.324 16.3276 131.839 16.3609 132.349 16.4274C132.843 16.492 133.324 16.6305 133.774 16.8378C134.191 17.0305 134.553 17.3198 134.828 17.6801C135.121 18.101 135.265 18.6033 135.239 19.1109V24.208C135.236 24.6322 135.262 25.0561 135.317 25.4769C135.341 25.796 135.436 26.1063 135.595 26.3867H132.763C132.709 26.2341 132.666 26.0781 132.635 25.9196C132.602 25.761 132.579 25.6005 132.566 25.4391C132.137 25.8721 131.601 26.1909 131.01 26.3651C130.414 26.5424 129.795 26.6334 129.173 26.6351C128.719 26.6384 128.266 26.5812 127.828 26.465C127.43 26.3602 127.059 26.1763 126.739 25.925C126.424 25.6822 126.172 25.3705 126.005 25.0152C125.82 24.6045 125.73 24.1594 125.741 23.7113C125.725 23.234 125.83 22.7602 126.047 22.3317C126.232 21.9891 126.5 21.6954 126.828 21.4759C127.159 21.2536 127.528 21.0892 127.917 20.9899C128.324 20.8816 128.738 20.7969 129.156 20.7362C129.57 20.6714 129.99 20.6201 130.384 20.5823C130.746 20.5521 131.104 20.4953 131.457 20.4122C131.727 20.3563 131.98 20.2429 132.199 20.0801C132.291 20.0028 132.361 19.9047 132.405 19.7946C132.449 19.6844 132.464 19.5656 132.449 19.4484C132.462 19.2087 132.411 18.9697 132.302 18.7546C132.212 18.5905 132.078 18.4526 131.915 18.355C131.739 18.259 131.546 18.1949 131.346 18.166C131.118 18.1326 130.887 18.1163 130.657 18.1175C130.201 18.0929 129.749 18.2132 129.37 18.4603C129.199 18.6008 129.061 18.7751 128.965 18.9716C128.87 19.1681 128.818 19.3822 128.814 19.5996H126.036C126.05 19.0421 126.218 18.4986 126.522 18.0257L126.555 18.0284ZM121.395 25.1313C121.101 25.6317 120.654 26.0315 120.117 26.276C119.517 26.5184 118.871 26.6366 118.222 26.6231C117.572 26.6097 116.932 26.4648 116.344 26.1977C115.787 25.926 115.303 25.5311 114.932 25.0449C114.554 24.5386 114.271 23.9709 114.098 23.3684C113.91 22.7276 113.817 22.064 113.82 21.3976C113.817 20.7525 113.91 20.1103 114.098 19.4916C114.271 18.9063 114.554 18.3571 114.932 17.8718C115.322 17.375 115.827 16.9753 116.407 16.7054C116.986 16.4355 117.624 16.3032 118.266 16.3194C118.857 16.3155 119.442 16.442 119.975 16.6893C120.499 16.9221 120.942 17.2971 121.251 17.7692H121.29V12.8584H124.068V26.3867H121.437V25.1367L121.395 25.1313ZM121.279 20.2907C121.212 19.9402 121.076 19.6056 120.878 19.3053C120.692 19.0231 120.442 18.7858 120.148 18.6115C119.803 18.4224 119.412 18.329 119.017 18.3415C118.615 18.331 118.218 18.4242 117.866 18.6115C117.561 18.7829 117.304 19.0238 117.116 19.3134C116.918 19.6188 116.779 19.9563 116.705 20.3096C116.62 20.6929 116.578 21.0839 116.58 21.4759C116.58 21.8577 116.625 22.2382 116.716 22.6098C116.8 22.9701 116.947 23.3136 117.152 23.6249C117.35 23.9134 117.61 24.1574 117.913 24.3403C118.249 24.5328 118.635 24.6265 119.025 24.6103C119.424 24.6215 119.818 24.5282 120.167 24.3403C120.467 24.1666 120.717 23.9225 120.895 23.6303C121.084 23.3168 121.216 22.9745 121.287 22.6179C121.367 22.2294 121.406 21.8342 121.404 21.4381C121.406 21.0483 121.367 20.6592 121.287 20.2772" fill="white"/>
<path d="M182.155 40.5621C182.614 40.9107 183.172 41.1147 183.755 41.1466C184.338 41.1785 184.917 41.0366 185.413 40.7403C185.759 40.545 186.023 40.2395 186.16 39.8764H188.612C188.221 41.0535 187.619 41.894 186.806 42.398C185.922 42.9237 184.898 43.1866 183.861 43.1539C183.124 43.1667 182.392 43.041 181.705 42.784C181.088 42.5564 180.532 42.1985 180.077 41.7365C179.626 41.2675 179.276 40.717 179.046 40.1167C178.797 39.4494 178.673 38.7444 178.682 38.0352C178.676 37.3366 178.803 36.6429 179.057 35.9888C179.288 35.3796 179.647 34.8229 180.11 34.3533C180.574 33.8837 181.133 33.5113 181.753 33.2594C182.42 32.9903 183.138 32.8553 183.861 32.8625C184.644 32.8435 185.419 33.0094 186.121 33.3457C186.745 33.6529 187.286 34.0967 187.701 34.6416C188.12 35.1993 188.422 35.8301 188.593 36.499C188.778 37.2105 188.844 37.9461 188.789 38.6777H181.47C181.509 39.547 181.75 40.1815 182.155 40.5675V40.5621ZM185.511 35.4137C185.179 35.0538 184.673 34.8738 183.993 34.8738C183.607 34.8577 183.223 34.9328 182.874 35.0925C182.599 35.2202 182.357 35.4045 182.164 35.6324C181.996 35.8339 181.871 36.065 181.795 36.3128C181.73 36.5223 181.688 36.7376 181.669 36.9553H186.199C186.12 36.3857 185.879 35.8483 185.503 35.4029L185.511 35.4137ZM177.737 33.1136V34.9089H175.695V39.7684C175.695 40.2247 175.776 40.5297 175.933 40.6809C176.09 40.8321 176.403 40.905 176.873 40.905C177.029 40.905 177.178 40.905 177.323 40.8861C177.462 40.8737 177.6 40.8539 177.737 40.8267V42.9163C177.476 42.9564 177.212 42.9808 176.948 42.9892C176.669 43.0081 176.389 43.0108 176.109 43.0108C175.698 43.0134 175.288 42.9845 174.882 42.9244C174.523 42.8781 174.176 42.7663 173.861 42.595C173.567 42.4274 173.327 42.1844 173.167 41.8931C172.979 41.5235 172.89 41.1141 172.907 40.7025V34.9143H171.229V33.119H172.907V30.179H175.704V33.119L177.737 33.1136ZM167.138 42.9163V41.5529H167.079C166.763 42.0891 166.284 42.5187 165.706 42.784C165.165 43.0292 164.576 43.1573 163.978 43.1593C163.353 43.1804 162.73 43.0841 162.144 42.8758C161.701 42.7095 161.314 42.4294 161.025 42.0659C160.735 41.6902 160.537 41.2566 160.443 40.797C160.328 40.2517 160.272 39.696 160.278 39.1394V33.119H163.075V38.648C163.075 39.4562 163.204 40.06 163.464 40.4596C163.723 40.8591 164.189 41.0571 164.862 41.0535C165.62 41.0535 166.168 40.8375 166.509 40.4002C166.85 39.9628 167.021 39.2474 167.021 38.2404V33.1109H169.817V42.9163H167.138ZM158.726 33.1244V34.9197H156.682V39.7792C156.682 40.2355 156.76 40.5405 156.92 40.6917C157.079 40.8429 157.39 40.9158 157.862 40.9158C158.019 40.9158 158.167 40.9158 158.312 40.8969C158.451 40.8843 158.59 40.8645 158.726 40.8375V42.9163C158.465 42.9562 158.202 42.9805 157.938 42.9892C157.658 43.0081 157.378 43.0108 157.099 43.0108C156.689 43.0131 156.279 42.9842 155.874 42.9244C155.515 42.8772 155.169 42.7655 154.853 42.595C154.558 42.429 154.318 42.1856 154.16 41.8931C153.972 41.5232 153.884 41.1139 153.902 40.7025V34.9143H152.224V33.119H153.902V30.179H156.699V33.119L158.726 33.1244ZM150.756 42.9163H147.96V33.119H150.756V42.9163ZM147.96 29.3906H150.756V31.6071H147.96V29.3906ZM146.349 33.1244V34.9197H144.31V39.7792C144.31 40.2355 144.389 40.5405 144.543 40.6917C144.696 40.8429 145.018 40.9158 145.488 40.9158C145.644 40.9158 145.793 40.9158 145.935 40.8969C146.074 40.8849 146.212 40.8651 146.349 40.8375V42.9163C146.09 42.9563 145.828 42.9807 145.566 42.9892C145.286 43.0081 145.007 43.0108 144.727 43.0108C144.316 43.0132 143.906 42.9843 143.499 42.9244C143.142 42.8777 142.796 42.7659 142.481 42.595C142.186 42.4276 141.944 42.1847 141.782 41.8931C141.597 41.5225 141.51 41.1136 141.528 40.7025V34.9143H139.85V33.119H141.528V30.179H144.324V33.119L146.349 33.1244ZM132.4 40.4866C132.519 40.689 132.685 40.8626 132.884 40.9941C133.087 41.1317 133.316 41.2306 133.558 41.2857C133.817 41.351 134.084 41.3837 134.352 41.3829C134.56 41.3818 134.767 41.3601 134.97 41.3181C135.175 41.2767 135.373 41.2067 135.557 41.1102C135.733 41.0164 135.885 40.8864 136.002 40.7295C136.125 40.5539 136.187 40.3448 136.178 40.1329C136.178 39.7297 135.899 39.4265 135.339 39.2231C134.58 38.9699 133.803 38.7669 133.015 38.6156C132.61 38.5292 132.213 38.424 131.83 38.3052C131.464 38.1961 131.117 38.037 130.798 37.8327C130.501 37.6415 130.253 37.3876 130.073 37.0903C129.879 36.7619 129.783 36.3883 129.794 36.0104C129.768 35.4688 129.9 34.9311 130.174 34.458C130.42 34.0593 130.767 33.7283 131.184 33.4969C131.624 33.2577 132.102 33.0916 132.599 33.0056C133.129 32.9121 133.667 32.8651 134.207 32.8652C134.744 32.8643 135.28 32.915 135.806 33.0164C136.295 33.1053 136.763 33.2782 137.188 33.5266C137.596 33.7683 137.942 34.096 138.2 34.485C138.486 34.9413 138.652 35.4588 138.681 35.9915H136.033C136.039 35.7793 135.985 35.5695 135.877 35.3845C135.769 35.1996 135.611 35.0464 135.42 34.9413C135.018 34.7498 134.574 34.6571 134.126 34.6713C133.956 34.6727 133.786 34.6826 133.617 34.701C133.445 34.7171 133.278 34.7581 133.119 34.8225C132.971 34.8815 132.839 34.9741 132.736 35.0925C132.625 35.229 132.569 35.3998 132.579 35.573C132.577 35.6851 132.601 35.7963 132.649 35.8983C132.697 36.0002 132.769 36.0902 132.859 36.1616C133.07 36.3289 133.313 36.4546 133.575 36.5314C133.907 36.6326 134.243 36.7173 134.584 36.7852C134.965 36.8608 135.35 36.9445 135.742 37.0309C136.144 37.1188 136.54 37.227 136.93 37.3549C137.297 37.4729 137.645 37.6411 137.962 37.8543C138.259 38.0616 138.506 38.3277 138.687 38.6345C138.882 38.986 138.978 39.3806 138.966 39.7792C138.985 40.3443 138.846 40.9039 138.564 41.3991C138.303 41.8241 137.943 42.1845 137.512 42.452C137.057 42.7232 136.555 42.9125 136.03 43.0108C135.471 43.1159 134.902 43.1684 134.333 43.1674C133.753 43.1695 133.174 43.1125 132.607 42.9973C132.075 42.8957 131.566 42.7048 131.103 42.4331C130.627 42.1488 130.236 41.751 129.967 41.278C129.697 40.8051 129.559 40.273 129.565 39.7333H132.213C132.205 39.9951 132.27 40.2541 132.4 40.4838V40.4866ZM121.265 33.1244V34.4742H121.323C121.641 33.9372 122.12 33.5054 122.696 33.2351C123.235 32.9812 123.826 32.8483 124.425 32.8463C125.051 32.8277 125.675 32.9267 126.262 33.1379C126.701 33.3098 127.087 33.5889 127.38 33.9478C127.67 34.3244 127.868 34.759 127.959 35.2194C128.075 35.7647 128.131 36.3204 128.124 36.877V42.9163H125.328V37.3791C125.328 36.5692 125.197 35.9663 124.936 35.5703C124.676 35.1708 124.209 34.971 123.538 34.971C122.78 34.971 122.227 35.1897 121.888 35.627C121.55 36.0644 121.379 36.7771 121.379 37.7868V42.9163H118.583V33.119L121.265 33.1244ZM116.617 42.9163H113.82V33.119H116.617V42.9163ZM113.82 29.3906H116.617V31.6071H113.82V29.3906Z" fill="white"/>
<path d="M151.494 0.272798V1.66511H151.549C151.865 1.11841 152.336 0.677923 152.902 0.39962C153.433 0.13908 154.016 0.00328644 154.606 0.00261292C155.224 -0.0180583 155.84 0.0840871 156.418 0.30313C156.851 0.477952 157.232 0.76309 157.521 1.13024C157.804 1.51465 157.998 1.9573 158.089 2.42605C158.205 2.98274 158.261 3.55023 158.257 4.11889V10.2699H155.519V4.62342C155.519 3.79998 155.39 3.18425 155.13 2.7762C154.871 2.37092 154.419 2.16689 153.752 2.16689C153.002 2.16689 152.459 2.39297 152.125 2.83686C151.791 3.28074 151.62 4.01412 151.62 5.0425V10.2809H148.863V0.272798H151.494ZM140.715 7.87123C141.167 8.22765 141.717 8.43676 142.292 8.47029C142.866 8.50382 143.437 8.36015 143.928 8.0587C144.265 7.85703 144.523 7.54696 144.661 7.17921H147.079C146.693 8.38129 146.1 9.23321 145.301 9.75153C144.43 10.2872 143.422 10.5565 142.4 10.5263C141.673 10.5385 140.95 10.4102 140.271 10.1486C139.663 9.91424 139.114 9.54795 138.664 9.07605C138.218 8.59819 137.872 8.03569 137.647 7.42182C137.403 6.73792 137.283 6.01643 137.291 5.29063C137.285 4.57729 137.41 3.86895 137.66 3.20078C137.889 2.57868 138.243 2.01006 138.7 1.53001C139.161 1.05906 139.711 0.684232 140.318 0.427192C140.976 0.148772 141.686 0.0107345 142.4 0.0219059C143.17 0.00302732 143.932 0.171444 144.622 0.51266C145.238 0.827476 145.771 1.28157 146.18 1.8388C146.593 2.40934 146.892 3.0544 147.06 3.73841C147.243 4.46309 147.308 5.21246 147.253 5.95783H140.04C140.078 6.85112 140.302 7.49627 140.715 7.88777V7.87123ZM143.823 2.63283C143.627 2.43915 143.391 2.28972 143.133 2.19461C142.874 2.09949 142.598 2.0609 142.323 2.08142C141.943 2.06724 141.565 2.14281 141.22 2.30199C140.952 2.43513 140.714 2.62295 140.522 2.8534C140.355 3.05974 140.231 3.298 140.158 3.55369C140.09 3.76566 140.048 3.98503 140.032 4.20711H144.496C144.419 3.62682 144.183 3.07903 143.815 2.62456L143.823 2.63283ZM128.374 0.281069V1.55758H128.412C128.714 1.04811 129.157 0.637918 129.689 0.377568C130.222 0.129046 130.805 0.00372424 131.393 0.0108837C132.096 -0.00695314 132.793 0.145323 133.425 0.454765C133.977 0.733029 134.46 1.13043 134.84 1.61824C135.222 2.13019 135.502 2.71037 135.667 3.32761C135.85 3.99307 135.943 4.68028 135.943 5.37058C135.942 6.02368 135.849 6.67344 135.667 7.30051C135.495 7.89811 135.215 8.45891 134.84 8.95474C134.452 9.46002 133.95 9.86583 133.375 10.1386C132.799 10.4114 132.167 10.5433 131.531 10.5235C130.938 10.531 130.351 10.4018 129.816 10.1458C129.296 9.89933 128.852 9.51862 128.528 9.04297H128.498V13.7768H125.741V0.267287L128.374 0.281069ZM131.945 8.21586C132.24 8.03911 132.492 7.79782 132.681 7.51005C132.872 7.19729 133.006 6.8527 133.075 6.4927C133.154 6.10432 133.192 5.70894 133.191 5.31268C133.191 4.91517 133.149 4.51875 133.067 4.12991C132.99 3.76353 132.849 3.41357 132.65 3.09601C132.461 2.79764 132.206 2.54599 131.906 2.35989C131.561 2.17526 131.175 2.07866 130.784 2.07866C130.392 2.07866 130.007 2.17526 129.661 2.35989C129.361 2.54008 129.109 2.78969 128.925 3.08774C128.733 3.39836 128.597 3.74108 128.526 4.09958C128.449 4.49474 128.41 4.89635 128.41 5.2989C128.409 5.69568 128.452 6.09135 128.537 6.47892C128.611 6.83921 128.748 7.18359 128.942 7.49627C129.13 7.78745 129.385 8.02943 129.686 8.20208C130.036 8.37788 130.422 8.46943 130.814 8.46943C131.206 8.46943 131.592 8.37788 131.942 8.20208L131.945 8.21586ZM114.19 3.09877C114.417 2.47921 114.773 1.9152 115.235 1.44454C115.697 0.979735 116.25 0.616324 116.86 0.377568C117.539 0.118682 118.261 -0.00856389 118.988 0.00261292C119.719 -0.00802639 120.444 0.119179 121.128 0.377568C121.744 0.613271 122.302 0.978768 122.765 1.44925C123.227 1.91973 123.583 2.48418 123.808 3.10429C124.058 3.80283 124.181 4.54045 124.172 5.28236C124.182 6.02163 124.059 6.75667 123.808 7.45216C123.576 8.06987 123.22 8.63307 122.76 9.10639C122.298 9.571 121.741 9.93028 121.128 10.1596C120.443 10.4125 119.718 10.5368 118.988 10.5263C118.262 10.5374 117.54 10.413 116.86 10.1596C116.249 9.92884 115.695 9.56967 115.235 9.10639C114.775 8.63437 114.419 8.07075 114.19 7.45216C113.935 6.75773 113.81 6.02218 113.821 5.28236C113.811 4.5399 113.936 3.80177 114.19 3.10429V3.09877ZM116.672 6.45411C116.743 6.81672 116.877 7.16395 117.069 7.47973C117.254 7.78013 117.511 8.03014 117.816 8.20759C118.171 8.39953 118.571 8.49462 118.974 8.48329C119.381 8.49349 119.784 8.39853 120.143 8.20759C120.453 8.03265 120.713 7.78225 120.899 7.47973C121.09 7.16353 121.226 6.81652 121.299 6.45411C121.449 5.67835 121.449 4.88085 121.299 4.1051C121.229 3.74183 121.093 3.39432 120.899 3.07947C120.71 2.77879 120.451 2.52889 120.143 2.35162C119.786 2.15561 119.382 2.06032 118.974 2.07591C118.57 2.05909 118.169 2.15452 117.816 2.35162C117.513 2.53152 117.257 2.78101 117.069 3.07947C116.875 3.3939 116.74 3.74164 116.672 4.1051C116.518 4.88048 116.518 5.67872 116.672 6.45411Z" fill="white"/>
</svg>
